<svg viewBox="0 0 512 512" xmlns="http://www.w3.org/2000/svg" xmlns:xlink="http://www.w3.org/1999/xlink"><linearGradient id="a" gradientTransform="matrix(1 0 0 -1 0 -9462)" gradientUnits="userSpaceOnUse" x1="0" x2="512" y1="-9718" y2="-9718"><stop offset="0" stop-color="#00f1ff"/><stop offset=".231" stop-color="#00d8ff"/><stop offset=".5138" stop-color="#00c0ff"/><stop offset=".7773" stop-color="#00b2ff"/><stop offset="1" stop-color="#00adff"/></linearGradient><path d="m512 256c0 141.386719-114.613281 256-256 256s-256-114.613281-256-256 114.613281-256 256-256 256 114.613281 256 256zm0 0" fill="url(#a)"/><path d="m426 282.664062c8.285156 0 15-6.714843 15-15v-94.363281c0-32.101562-26.117188-58.21875-58.222656-58.21875h-253.554688c-32.105468 0-58.222656 26.117188-58.222656 58.21875v166.398438c0 32.101562 26.117188 58.21875 58.222656 58.21875h253.558594c32.101562 0 58.21875-26.117188 58.21875-58.21875 0-8.285157-6.714844-15-15-15-8.28125 0-15 6.714843-15 15 0 15.5625-12.660156 28.21875-28.21875 28.21875h-253.558594c-15.5625 0-28.222656-12.660157-28.222656-28.21875v-162.277344l124.257812 77.265625c9.480469 5.894531 20.109376 8.84375 30.742188 8.84375s21.261719-2.949219 30.742188-8.84375l124.257812-77.265625v90.242187c0 8.285157 6.714844 15 15 15zm-155.097656-53.453124c-9.191406 5.714843-20.613282 5.714843-29.804688 0l-127.589844-79.339844c4.496094-3.023438 9.898438-4.789063 15.710938-4.789063h253.558594c5.8125 0 11.21875 1.765625 15.714844 4.789063zm0 0" fill="#fff"/></svg>